<?xml version="1.0" encoding="UTF-8"?>
<svg width="129px" height="48px" viewBox="0 0 129 48" version="1.1" xmlns="http://www.w3.org/2000/svg" xmlns:xlink="http://www.w3.org/1999/xlink">
    <title>Group 33</title>
    <defs>
        <polygon id="path-1" points="0 47.6553962 128.966842 47.6553962 128.966842 0 0 0"></polygon>
    </defs>
    <g id="Symbols" stroke="none" stroke-width="1" fill="none" fill-rule="evenodd">
        <g id="Footer" transform="translate(-100.000000, -75.000000)">
            <g id="Content">
                <g transform="translate(100.000000, 75.000000)">
                    <g id="Col-1">
                        <g id="Group-33">
                            <path d="M19.8274363,12.5678491 C18.8340454,10.9363019 17.4799996,9.67562264 15.8020912,8.82067925 C14.1596123,7.98384906 12.3299926,7.55954717 10.3622884,7.55954717 C9.1640419,7.55954717 8.02847852,7.7370566 6.98830246,8.08573585 C5.93949613,8.43713208 4.99697852,8.93886792 4.19072852,9.57373585 C2.66135176,10.7728302 1.56121796,12.2001509 0.921668662,13.8167547 C0.310281338,15.3631698 4.54225352e-05,16.8303396 4.54225352e-05,18.1756981 L4.54225352e-05,33.9504906 L4.74851725,33.9504906 L4.74851725,18.2707925 C4.74851725,17.1776604 5.01605599,16.1723774 5.56657711,15.1987925 C6.12209472,14.2161509 6.83159472,13.4630943 7.73368627,12.8956981 C8.60761585,12.3468679 9.52969331,12.0796981 10.553063,12.0796981 L10.6484504,12.0796981 C12.0265701,12.0796981 13.1298835,12.4089057 14.0201651,13.085434 C14.9576863,13.7981887 15.6076827,14.6282264 16.0064926,15.6235472 C16.4302849,16.6781887 16.644225,17.6970566 16.644225,18.6511698 L16.644225,33.9504906 L21.3926968,33.9504906 L21.3926968,18.3658868 C21.3926968,17.2786415 21.2596088,16.2412075 20.9966123,15.282566 C20.7322532,14.3193962 20.338894,13.4055849 19.8274363,12.5678491" id="Fill-1" fill="#FFD300"></path>
                            <mask id="mask-2" fill="white">
                                <use xlink:href="#path-1"></use>
                            </mask>
                            <g id="Clip-4"></g>
                            <polygon id="Fill-3" fill="#FFD300" mask="url(#mask-2)" points="27.749081 33.9504906 32.3780915 33.9504906 32.3780915 7.98792453 27.749081 7.98792453"></polygon>
                            <path d="M29.9800996,4.52830189e-05 C29.2056454,4.52830189e-05 28.5070468,0.30525283 27.9587968,0.883064151 C27.4314412,1.43868679 27.1525468,2.16547925 27.1525468,2.98510189 C27.1525468,3.78344151 27.4536982,4.47898868 28.0210257,4.9938566 C28.513406,5.44170566 29.1157088,5.71068679 29.811582,5.79355472 L30.0000856,5.81619623 L30.1876806,5.78857358 C30.8358602,5.69302642 31.4168144,5.46796981 31.9160081,5.11929057 L32.0777123,4.98751698 C32.6641173,4.43325283 32.9743532,3.74087547 32.9743532,2.98510189 C32.9743532,1.14389434 31.8265257,4.52830189e-05 29.9800996,4.52830189e-05" id="Fill-5" fill="#FFD300" mask="url(#mask-2)"></path>
                            <path d="M43.482675,1.68819623 L38.7346574,1.68819623 L38.7346574,25.7647245 C38.7346574,28.3354415 39.479587,30.3663849 40.9494602,31.8004981 C42.4107032,33.2269132 44.2771151,33.9505358 46.4978229,33.9505358 L51.6859849,33.9505358 L51.6859849,29.2660075 L47.2627384,29.4068377 C46.6786046,29.4050264 46.1398933,29.3325736 45.6588687,29.1912906 C45.1723933,29.0481962 44.7581398,28.8684226 44.4274637,28.6574038 L44.3779532,28.6266113 C43.7742877,28.2738566 43.557168,27.2776302 43.482675,26.4806491 L43.482675,12.5787623 L51.6859849,12.5787623 L51.6859849,7.98796981 L43.482675,7.98796981 L43.482675,1.68819623 Z" id="Fill-6" fill="#FFD300" mask="url(#mask-2)"></path>
                            <path d="M57.9278134,23.1868075 C57.7420352,22.4822038 57.6457394,21.7902792 57.6393803,21.1169208 L57.8147113,19.372166 C58.1667359,17.7410717 58.7717641,16.3735245 59.6129894,15.3071094 C60.4569401,14.236166 61.446243,13.4455245 62.5531901,12.9569208 C63.6914789,12.4533736 64.9301514,12.1984302 66.2337782,12.1984302 C67.5710176,12.1984302 68.8482993,12.4583547 70.0297394,12.9714113 C70.6443063,13.2385811 71.1762042,13.5555623 71.6322465,13.9282415 L57.9278134,23.1868075 Z M75.1157007,21.3854491 C75.1157007,22.1330717 75.0030528,22.8512604 74.7818451,23.5205434 C74.5461021,24.231034 74.2067958,24.9528453 73.7711937,25.6674113 C72.9826585,26.9634113 71.9529296,27.9700528 70.6243204,28.7425811 C69.9434366,29.1365434 69.2352993,29.4317887 68.5180775,29.620166 C67.8231127,29.8035623 67.0454789,29.8995623 66.2047077,29.9059019 L64.2220141,29.6477887 C62.7380599,29.1899774 61.4971162,28.5075623 60.53325,27.6195623 C60.4274155,27.5217509 60.3243063,27.4234868 60.2252852,27.3234113 L78.5119437,15.004166 L77.8678521,13.8662038 C76.8353979,12.0426566 75.23925,10.524317 73.138912,9.36326038 C72.0306021,8.73156226 70.8950387,8.26695849 69.7644718,7.98303396 C68.6443521,7.70227925 67.416581,7.55963774 66.1152254,7.55963774 C63.6992007,7.55963774 61.4494225,8.18092075 59.4285739,9.40627925 C57.4204437,10.6225811 55.8192993,12.276317 54.681919,14.3009208 C54.0705317,15.3469585 53.5995,16.4296755 53.2815423,17.5196377 C52.9590423,18.6268075 52.7955211,19.7833358 52.7955211,20.9575245 C52.7955211,22.1806189 52.9635845,23.3711094 53.2942606,24.4941283 C53.6185775,25.5945057 54.0837042,26.6740528 54.6950915,27.7305057 C55.9460282,29.7849962 57.6234824,31.4160906 59.6797606,32.5780528 C61.7396725,33.7413736 64.0407782,34.3309585 66.5208486,34.3309585 C68.7701725,34.3309585 70.9109366,33.828317 72.8831831,32.836166 C74.8845,31.8299774 76.547419,30.3143547 77.8342394,28.3182792 C78.4869613,27.2812981 78.9920599,26.1886189 79.3368169,25.0696755 C79.6865704,23.9330717 79.8641725,22.6936755 79.8641725,21.3854491 L79.8641725,19.9694491 L75.1157007,19.9694491 L75.1157007,21.3854491 Z" id="Fill-7" fill="#FFD300" mask="url(#mask-2)"></path>
                            <path d="M97.3220968,7.46467925 L96.0098398,7.46467925 C94.8438433,7.46467925 93.6769384,7.57788679 92.5404665,7.80067925 C91.4117165,8.02211321 90.3329313,8.33456604 89.334544,8.72943396 L89.288213,8.74845283 C87.1292799,9.69169811 85.339632,11.1683774 83.9642377,13.1449811 C82.533882,15.2298113 81.8084842,17.8186415 81.8084842,20.838566 C81.8084842,22.4578868 82.0410475,23.9762264 82.5011778,25.3514717 C82.963125,26.7330566 83.5999489,27.953434 84.3989313,28.9849811 C85.934213,30.9430189 87.8028961,32.3010566 89.9536532,33.0210566 C91.9822236,33.7007547 94.1238961,34.0453585 96.3200757,34.0453585 L97.6055335,34.0453585 L99.9343468,33.8189434 L99.9343468,28.7241509 L98.1696813,29.1638491 C98.019787,29.2009811 97.6477764,29.2643774 96.844706,29.2643774 L96.1769947,29.2643774 C93.9667342,29.2643774 92.1389313,28.9034717 90.7430968,28.190717 C89.390868,27.5010566 88.4270018,26.5917736 87.790632,25.3976604 C87.381375,24.6504906 87.0684137,23.9042264 86.8594701,23.1801509 C86.6582482,22.4836981 86.556956,21.6998491 86.556956,20.8507925 C86.556956,19.2346415 86.8921743,17.7403019 87.5539806,16.4098868 C88.1944384,15.1215849 89.1860123,14.1086038 90.5850264,13.3138868 C91.9981215,12.510566 93.8395511,12.1034717 96.0579877,12.1034717 C96.4127377,12.1034717 96.7852025,12.1179623 97.1649349,12.1469434 C97.5632905,12.1777358 97.9621004,12.2157736 98.3509173,12.2606038 L99.9343468,12.4430943 L99.9343468,7.75766038 L98.7270158,7.57471698 C98.2441743,7.50181132 97.7717799,7.46467925 97.3220968,7.46467925" id="Fill-8" fill="#FFD300" mask="url(#mask-2)"></path>
                            <path d="M115.651725,12.0798792 C116.438898,12.0798792 117.196545,12.1935396 117.903774,12.4176906 C118.623721,12.645917 119.293704,12.9647094 119.901003,13.368634 C121.141038,14.1850868 122.146239,15.3008604 122.888443,16.6860679 C123.631102,18.0730868 124.008109,19.5139925 124.008109,20.9689358 C124.008109,22.2979925 123.681521,23.6913509 123.038338,25.1096151 C122.404239,26.5043321 121.463084,27.6400302 120.160366,28.5805585 C118.902616,29.488483 117.4282,29.9299925 115.651725,29.9299925 C113.918855,29.9299925 112.460338,29.493917 111.192595,28.5968604 C109.877158,27.6658415 108.915563,26.5432755 108.252394,25.1630491 C107.90264,24.4385208 107.649183,23.7352755 107.498834,23.0718792 C107.348031,22.4098415 107.271721,21.7025208 107.271721,20.9689358 C107.271721,19.4320302 107.637827,17.9558038 108.360954,16.5810113 C109.086806,15.2007849 110.067024,14.1248604 111.357024,13.2921057 C112.620225,12.4761057 114.025144,12.0798792 115.651725,12.0798792 M127.828598,16.0018415 C127.212669,14.3952 126.33238,12.9470491 125.211806,11.6972377 C124.075334,10.4288604 122.678137,9.4122566 121.058369,8.67550189 C119.431334,7.93512453 117.612162,7.5597283 115.651725,7.5597283 C113.496426,7.5597283 111.550979,7.99218113 109.86989,8.84395472 C108.211968,9.68395472 106.802507,10.8087849 105.679207,12.1881057 C104.576348,13.5407094 103.749204,15.0078792 103.219577,16.5488604 C102.694038,18.0785208 102.427862,19.5656151 102.427862,20.9689358 C102.427862,22.0403321 102.572306,23.1235019 102.85756,24.1890113 C103.131912,25.2182943 103.514369,26.2525585 103.995394,27.2632755 L104.0122,27.2976906 C105.073725,29.3807094 106.618545,31.1068981 108.603964,32.4273509 C110.621633,33.7690868 112.99269,34.4496906 115.651725,34.4496906 C117.0412,34.4496906 118.339831,34.2685585 119.513095,33.9121811 C120.688176,33.5539925 121.801028,33.0187472 122.839841,32.3091623 C124.833436,30.9008604 126.331017,29.1348226 127.275806,27.0902943 C127.797257,26.032483 128.178352,24.9986717 128.409552,24.016483 C128.640299,23.0329358 128.757035,22.0081811 128.757035,20.9689358 C128.757035,19.2807849 128.444528,17.6093887 127.828598,16.0018415" id="Fill-9" fill="#FFD300" mask="url(#mask-2)"></path>
                            <path d="M3.50062394,38.7110491 C3.17676127,38.5489358 2.80384225,38.4669736 2.39322254,38.4669736 C2.2133493,38.4669736 2.03710986,38.4850868 1.86904648,38.5208604 C1.70234577,38.556634 1.53519085,38.6087094 1.37166972,38.6775396 C1.04053944,38.8210868 0.761190845,39.0669736 0.540891549,39.4084075 C0.321500704,39.7489358 0.210215493,40.1972377 0.210215493,40.7401811 L0.210215493,45.5035019 L0.900183803,45.5035019 L0.900183803,40.6989736 C0.900183803,40.2719547 1.01601127,39.8983698 1.24539507,39.5872755 C1.35668028,39.4324075 1.50839155,39.3115019 1.69598662,39.228634 C1.88903239,39.1430491 2.12977183,39.0991245 2.41184577,39.0991245 C2.62169789,39.0991245 2.80838451,39.124483 2.9660007,39.1738415 C3.11862042,39.2218415 3.25125423,39.2929358 3.35618028,39.3807849 C3.5769338,39.5845585 3.72092324,39.7996528 3.78496901,40.0210868 C3.85174014,40.2552 3.88626127,40.4698415 3.88626127,40.6595774 C3.88626127,40.9752 3.81903592,41.2523321 3.68594789,41.4837283 C3.55195141,41.7169358 3.3779831,41.8881057 3.15495845,42.0072 C2.93147958,42.1267472 2.67938451,42.1874264 2.4068493,42.1874264 L0.971497183,42.1874264 L0.971497183,42.8195774 L2.42501831,42.8195774 C2.62851127,42.8195774 2.8279162,42.7946717 3.01687394,42.745766 C3.20401479,42.6973132 3.3798,42.6312 3.54513803,42.5474264 C3.86127887,42.3721811 4.10974014,42.1290113 4.2828,41.8242566 C4.3813669,41.6539925 4.45676831,41.4760302 4.50627887,41.2958038 C4.55578944,41.1142189 4.58122606,40.9136151 4.58122606,40.6989736 C4.58122606,40.2293887 4.48356761,39.8186717 4.29143028,39.4776906 C4.09702183,39.1335396 3.8313,38.8754264 3.50062394,38.7110491" id="Fill-10" fill="#FEFEFE" mask="url(#mask-2)"></path>
                            <path d="M10.5424342,43.1120151 C10.5424342,43.3900528 10.4752088,43.6798642 10.3416665,43.9737509 C10.2103954,44.2631094 10.0069025,44.5080906 9.73800106,44.7032604 C9.47273345,44.8943547 9.15068768,44.9912604 8.78049401,44.9912604 C8.41847641,44.9912604 8.10051866,44.8957132 7.83388838,44.706883 C7.56226162,44.514883 7.35513486,44.2726189 7.2179588,43.986883 C7.14528275,43.8369962 7.09213838,43.6902792 7.06079683,43.5512604 C7.02990951,43.4131472 7.01355739,43.2650717 7.01355739,43.1120151 C7.01355739,42.7909585 7.08986725,42.4821283 7.2411243,42.1954868 C7.39147289,41.9092981 7.60359613,41.6769962 7.87068063,41.5044679 C8.13549401,41.3332981 8.44209613,41.2463547 8.78049401,41.2463547 C8.94719472,41.2463547 9.10844472,41.2708075 9.25970176,41.3188075 C9.41232148,41.3668075 9.55403979,41.4342792 9.68167711,41.5198642 C9.94240246,41.6914868 10.153163,41.9251472 10.3085081,42.2145057 C10.4638532,42.5047698 10.5424342,42.8063547 10.5424342,43.1120151 M10.540163,41.3971472 C10.3316736,41.1648453 10.0750363,40.9782792 9.77615599,40.8419774 C9.4772757,40.7061283 9.14251162,40.6368453 8.78049401,40.6368453 C8.38213838,40.6368453 8.02375458,40.7160906 7.71578979,40.872317 C7.41055035,41.0271849 7.15073345,41.2345811 6.94406092,41.488166 C6.73965951,41.7394868 6.58613134,42.0111849 6.48892711,42.2951094 C6.39126866,42.5781283 6.3417581,42.8529962 6.3417581,43.1120151 C6.3417581,43.3094491 6.36855739,43.5086943 6.42079331,43.704317 C6.47212077,43.8967698 6.54434261,44.0901283 6.6356419,44.2825811 C6.83186725,44.667034 7.11712077,44.9858264 7.48368063,45.2294491 C7.85342007,45.4757887 8.28993063,45.6007698 8.78049401,45.6007698 C9.03758556,45.6007698 9.27741655,45.5672604 9.49226514,45.5020528 C9.70847641,45.4363925 9.91242359,45.3381283 10.1009271,45.2086189 C10.4697581,44.9486943 10.7459271,44.6226566 10.9217123,44.2436377 C11.0189165,44.0457509 11.0893215,43.8542038 11.1320187,43.6744302 C11.1742616,43.4937509 11.1956102,43.3044679 11.1956102,43.1120151 C11.1956102,42.7995623 11.1383778,42.4902792 11.0243673,42.1932226 C10.9099025,41.8957132 10.7472898,41.6280906 10.540163,41.3971472" id="Fill-11" fill="#FEFEFE" mask="url(#mask-2)"></path>
                            <path d="M18.8413585,43.9088604 C18.8413585,44.0709736 18.812288,44.2195019 18.7541472,44.349917 C18.6955521,44.4816906 18.6142458,44.5971623 18.5115908,44.6940679 C18.4093901,44.7914264 18.2958338,44.8661434 18.1759183,44.9164075 C17.9892317,44.9952 17.7666613,45.0178415 17.560443,44.9576151 C17.4804993,44.9345208 17.399193,44.9001057 17.3156155,44.853917 C17.1625415,44.776483 17.0371754,44.6623698 16.9436049,44.5156528 C16.8886437,44.4273509 16.8477634,44.3404075 16.8223268,44.2570868 C16.7968901,44.1751245 16.7841718,44.0827472 16.7841718,43.9831245 L16.7841718,40.7200302 L16.1309958,40.7200302 L16.1309958,43.9459925 C16.1309958,44.1081057 16.1046507,44.2534642 16.0515063,44.3775396 C15.9997246,44.4993509 15.9225063,44.605766 15.818943,44.6949736 C15.6027317,44.8942189 15.3697141,44.9911245 15.1067176,44.9911245 C14.9781718,44.9911245 14.8550768,44.9662189 14.7401577,44.9168604 C14.6225134,44.8665962 14.5125908,44.7950491 14.4135697,44.704483 C14.3041014,44.6039547 14.2196155,44.4898415 14.1628373,44.3666717 C14.1060592,44.2448604 14.0783514,44.1031245 14.0783514,43.9459925 L14.0783514,40.7200302 L13.4433444,40.7200302 L13.4433444,43.9641057 C13.4433444,44.1348226 13.4669641,44.2955774 13.5128408,44.4436528 C13.5569007,44.5876528 13.6204923,44.7280302 13.702707,44.8643321 C13.8644113,45.1170113 14.0719923,45.3053887 14.3195451,45.4249358 C14.561193,45.5413132 14.8264606,45.600634 15.1067176,45.600634 C15.754443,45.600634 16.2104852,45.3628981 16.4662141,44.8933132 C16.7337528,45.3628981 17.1920662,45.600634 17.8316155,45.600634 C18.1563866,45.600634 18.4479993,45.5227472 18.6991859,45.3692377 C18.9490099,45.2157283 19.1438725,45.0060679 19.277869,44.7461434 C19.4095944,44.4893887 19.4763655,44.2077283 19.4763655,43.9088604 L19.4763655,40.7200302 L18.8413585,40.7200302 L18.8413585,43.9088604 Z" id="Fill-12" fill="#FEFEFE" mask="url(#mask-2)"></path>
                            <path d="M26.0504144,43.1929358 C26.0504144,43.3523321 26.0263405,43.5062943 25.9791011,43.6507472 C25.9291363,43.8001811 25.8587313,43.9500679 25.7692489,44.0967849 C25.6057278,44.3653132 25.3831574,44.5822189 25.1088053,44.7420679 C24.9657243,44.8249358 24.8162842,44.8869736 24.6650271,44.9268226 C24.5137701,44.9666717 24.3447982,44.9865962 24.1812771,44.9879547 L23.7765623,44.9372377 C23.4586046,44.8421434 23.1919743,44.6967849 22.9843933,44.5056906 C22.7772665,44.3145962 22.6278264,44.1022189 22.5387982,43.8694642 C22.4316011,43.6172377 22.3780025,43.3677283 22.377094,43.1413132 L22.4116151,42.7872 C22.4842912,42.4425962 22.6123827,42.1527849 22.7908933,41.9263698 C22.9694039,41.7004075 23.179256,41.5328604 23.4145447,41.4287094 C23.8992032,41.2149736 24.4906046,41.2195019 24.9788968,41.4314264 C25.1701257,41.5142943 25.3281961,41.6243321 25.4521996,41.7592755 L22.5546961,43.7168604 L22.9416961,44.2358038 L26.3965342,41.9091623 L26.3329426,41.7959547 C26.1444391,41.4631245 25.8514637,41.1850868 25.4631011,40.9704453 C25.2577912,40.8531623 25.0483933,40.7675774 24.8403581,40.7150491 C24.6323229,40.6634264 24.4043018,40.6367094 24.1631081,40.6367094 C23.7179673,40.6367094 23.304168,40.7512755 22.9317032,40.9767849 C22.5606011,41.2018415 22.2653546,41.5070491 22.054594,41.8819925 C21.9410377,42.0771623 21.8538264,42.277766 21.7947771,42.4783698 C21.736182,42.6821434 21.7062032,42.8940679 21.7062032,43.1096151 C21.7062032,43.3346717 21.7370905,43.5538415 21.7975025,43.7603321 C21.8583687,43.9650113 21.9446715,44.1647094 22.0564109,44.3580679 C22.2876116,44.7379925 22.5969391,45.0395774 22.9771257,45.253766 C23.3573123,45.4688604 23.7829215,45.5775396 24.2421433,45.5775396 C24.658668,45.5775396 25.0547525,45.4847094 25.4190412,45.3008604 C25.7869637,45.1161057 26.0926574,44.8371623 26.3293088,44.4708226 C26.4501327,44.2788226 26.5432489,44.0773132 26.6068405,43.8708226 C26.6708863,43.6634264 26.7031363,43.4352 26.7031363,43.1929358 L26.7031363,43.0525585 L26.0504144,43.0525585 L26.0504144,43.1929358 Z" id="Fill-13" fill="#FEFEFE" mask="url(#mask-2)"></path>
                            <path d="M29.4793162,41.2790038 L29.4793162,40.7202113 L28.8265944,40.7202113 L28.8265944,45.5039094 L29.4793162,45.5039094 L29.4793162,42.9200604 C29.4793162,42.7633811 29.4979394,42.611683 29.5351859,42.4694943 C29.5733408,42.3245887 29.626031,42.1842113 29.6914394,42.0533434 C29.8113549,41.8165132 29.9739676,41.6353811 30.1724641,41.5153811 C30.3723232,41.3953811 30.5958021,41.3347019 30.8279113,41.3342491 L31.2389852,41.363683 L31.2389852,40.7202113 L30.8006577,40.7202113 C30.2478655,40.7202113 29.80545,40.9081358 29.4793162,41.2790038" id="Fill-14" fill="#FEFEFE" mask="url(#mask-2)"></path>
                            <polygon id="Fill-15" fill="#FEFEFE" mask="url(#mask-2)" points="33.3705739 45.5035472 34.0010387 45.5035472 34.0010387 40.7203019 33.3705739 40.7203019"></polygon>
                            <path d="M33.6693634,39.1654189 C33.5567155,39.1654189 33.4545148,39.2102491 33.3745711,39.2953811 C33.2946275,39.3796075 33.2546556,39.4860226 33.2546556,39.6114566 C33.2546556,39.727834 33.297807,39.8288151 33.3786592,39.9021736 C33.4536063,39.9700981 33.5458141,40.0113057 33.652557,40.0239849 L33.6716345,40.0257962 L33.6902577,40.0235321 C33.7947296,40.007683 33.8883,39.9719094 33.9841415,39.9030792 C34.0713528,39.8215698 34.1167754,39.7205887 34.1167754,39.6114566 C34.1167754,39.3320604 33.9491662,39.1654189 33.6693634,39.1654189" id="Fill-16" fill="#FEFEFE" mask="url(#mask-2)"></path>
                            <path d="M40.3811335,41.5467623 C40.2012602,41.2506113 39.9555243,41.0219321 39.6516475,40.867517 C39.3509504,40.7149132 39.015732,40.6370264 38.6546229,40.6370264 C38.4365947,40.6370264 38.2299222,40.6691774 38.0414187,40.7325736 C37.8520067,40.7959698 37.6816722,40.8865358 37.5372285,41.0001962 C37.2587884,41.2184604 37.0589292,41.4774792 36.943556,41.7695547 C36.8304539,42.0548377 36.7736757,42.323366 36.7736757,42.5683472 L36.7736757,45.5035925 L37.4263975,45.5035925 L37.4263975,42.5869132 C37.4263975,42.3532528 37.4859011,42.1300075 37.6035454,41.9226113 C37.7211898,41.7143094 37.8783518,41.5467623 38.0704891,41.4258566 C38.2635349,41.3049509 38.4665736,41.246083 38.7104926,41.246083 C39.0052849,41.246083 39.2537461,41.3217057 39.449063,41.470234 C39.648468,41.6219321 39.7933658,41.8071396 39.8796687,42.0213283 C39.9682426,42.2427623 40.0127567,42.4578566 40.0127567,42.6607245 L40.0127567,45.5035925 L40.666387,45.5035925 L40.666387,42.6054792 C40.666387,42.4053283 40.6418588,42.2151396 40.5937109,42.0408 C40.545563,41.8651019 40.4737954,41.6989132 40.3811335,41.5467623" id="Fill-17" fill="#FEFEFE" mask="url(#mask-2)"></path>
                            <path d="M46.8308155,41.2615245 C46.6132415,41.0446189 46.3593296,40.8784302 46.0745303,40.767034 C45.5308225,40.5542038 44.9294282,40.542883 44.3884458,40.7480151 C44.1281746,40.8462792 43.8878894,40.9952604 43.675312,41.1895245 C43.4609176,41.3846943 43.282407,41.6323925 43.1438683,41.9253736 C43.0057838,42.2160906 42.9163014,42.5652226 42.877238,42.9754868 C42.877238,43.3581283 42.9394669,43.7176755 43.062562,44.0428075 C43.1861113,44.3706566 43.3582627,44.6518642 43.5749282,44.8787321 C43.7906852,45.1060528 44.0405092,45.2812981 44.3175866,45.3999396 C44.5937556,45.5176755 44.882643,45.5774491 45.1760725,45.5774491 C45.7629317,45.5774491 46.2807486,45.3786566 46.7140796,44.9860528 L46.7608648,44.9443925 L46.7608648,44.0473358 L46.5187627,44.2986566 C46.3066394,44.5182792 46.0845232,44.6871849 45.8596817,44.8003925 C45.5022063,44.9810717 45.1074845,45.0186566 44.7522803,44.8991094 C44.6141958,44.8529208 44.4824704,44.7868075 44.3616465,44.7025811 C44.1063718,44.5223547 43.9024246,44.2828075 43.7543472,43.9902792 C43.6053613,43.6968453 43.5299599,43.3866566 43.5295056,43.0800906 C43.5649352,42.6739019 43.6603225,42.3374491 43.8106711,42.0825057 C43.9791887,41.812166 44.1872239,41.6102038 44.4275092,41.4820528 C44.9366958,41.2126189 45.5253718,41.2302792 46.0304704,41.502883 C46.2921042,41.6437132 46.5055901,41.8547321 46.6650232,42.1296 C46.8244563,42.4058264 46.9057627,42.7354868 46.9057627,43.1095245 L46.9057627,45.1735245 C46.9057627,45.5212981 46.8576148,45.820166 46.7626817,46.0615245 C46.6691113,46.2983547 46.539657,46.4889962 46.3788613,46.6293736 C46.2153401,46.7711094 46.0281993,46.8743547 45.8242521,46.9359396 C45.4427028,47.052317 44.9634951,47.0568453 44.5406113,46.9785057 C44.3502908,46.9436377 44.1676923,46.8915623 43.9982662,46.8245434 L43.8592732,46.7697509 L43.6589599,47.3715623 L43.7847803,47.4195623 C44.1954,47.5757887 44.6373613,47.6554868 45.0974915,47.6554868 C45.5321852,47.6554868 45.9387169,47.5753358 46.3066394,47.4172981 C46.6822838,47.2551849 46.9857063,46.996166 47.2078225,46.6456755 C47.4281218,46.2969962 47.5403155,45.8532226 47.5403155,45.3261283 L47.5403155,43.1280906 C47.5403155,42.735034 47.4762697,42.3768453 47.3495408,42.0625811 C47.2214493,41.7460528 47.047481,41.4766189 46.8308155,41.2615245" id="Fill-18" fill="#FEFEFE" mask="url(#mask-2)"></path>
                            <path d="M58.1810894,40.5878491 C58.1810894,40.7291321 58.1651915,40.8636226 58.13385,40.9858868 C58.1029627,41.1095094 58.0570859,41.2308679 57.9989451,41.3431698 C57.8731246,41.5695849 57.696431,41.7502642 57.4729521,41.8802264 C57.2499275,42.0106415 56.9783007,42.0763019 56.664431,42.0763019 C56.2942373,42.0763019 55.9612901,41.9449811 55.6474204,41.6755472 C55.3399099,41.4106415 55.1904697,41.0551698 55.1904697,40.5878491 L55.1904697,38.5781887 L54.5000472,38.5781887 L54.5000472,40.5878491 C54.5000472,40.9478491 54.5849873,41.2965283 54.7521423,41.6234717 C54.9202056,41.9522264 55.1591282,42.2207547 55.461188,42.4213585 C55.7282725,42.5988679 56.0257901,42.6998491 56.3473817,42.7224906 L56.3473817,45.5037736 L57.0378042,45.5037736 L57.0378042,42.7211321 C57.2821775,42.6993962 57.5329099,42.6206038 57.7840965,42.4861132 C58.0866106,42.3258113 58.345519,42.0767547 58.5549169,41.7457358 C58.7643148,41.4124528 58.871512,41.0103396 58.871512,40.550717 L58.871512,38.5781887 L58.1810894,38.5781887 L58.1810894,40.5878491 Z" id="Fill-19" fill="#FEFEFE" mask="url(#mask-2)"></path>
                            <path d="M65.5658398,43.1120151 C65.5658398,43.3900528 65.4986144,43.6798642 65.3655264,43.9737509 C65.2338011,44.2631094 65.0303081,44.5080906 64.7614067,44.7032604 C64.4961391,44.8943547 64.1740933,44.9912604 63.8038996,44.9912604 C63.441882,44.9912604 63.1239243,44.8957132 62.857294,44.706883 C62.5856673,44.514883 62.3785405,44.2726189 62.2413644,43.986883 C62.1686884,43.8369962 62.1159982,43.6902792 62.0842025,43.5512604 C62.0533151,43.4131472 62.036963,43.2650717 62.036963,43.1120151 C62.036963,42.7909585 62.1132729,42.4821283 62.2645299,42.1954868 C62.4148785,41.9092981 62.6270018,41.6769962 62.8945405,41.5044679 C63.1593539,41.3332981 63.4655018,41.2463547 63.8038996,41.2463547 C63.9706004,41.2463547 64.1318504,41.2708075 64.2835616,41.3188075 C64.4357271,41.3668075 64.5774454,41.4342792 64.7050827,41.5198642 C64.9658081,41.6914868 65.1770229,41.9251472 65.3319137,42.2145057 C65.4872588,42.5047698 65.5658398,42.8063547 65.5658398,43.1120151 M65.5635687,41.3971472 C65.3550792,41.1648453 65.0984419,40.9782792 64.7995616,40.8419774 C64.5011356,40.7061283 64.1659173,40.6368453 63.8038996,40.6368453 C63.405544,40.6368453 63.0476144,40.7160906 62.7396496,40.872317 C62.433956,41.0271849 62.1745933,41.2345811 61.9674665,41.488166 C61.7630651,41.7394868 61.609537,42.0111849 61.5123327,42.2951094 C61.4146743,42.5781283 61.365618,42.8529962 61.365618,43.1120151 C61.365618,43.3094491 61.391963,43.5086943 61.4441989,43.704317 C61.4959806,43.8967698 61.5677482,44.0901283 61.6590475,44.2825811 C61.8552729,44.667034 62.1405264,44.9858264 62.5070863,45.2294491 C62.8768257,45.4757887 63.3133363,45.6007698 63.8038996,45.6007698 C64.0609912,45.6007698 64.3008222,45.5672604 64.5156708,45.5020528 C64.731882,45.4363925 64.9358292,45.3381283 65.124787,45.2086189 C65.4931637,44.9486943 65.7693327,44.6226566 65.945118,44.2436377 C66.0423222,44.0457509 66.1127271,43.8542038 66.1554243,43.6744302 C66.1976673,43.4937509 66.2190158,43.3044679 66.2190158,43.1120151 C66.2190158,42.7995623 66.1617835,42.4902792 66.0477729,42.1932226 C65.9337623,41.8957132 65.7706954,41.6280906 65.5635687,41.3971472" id="Fill-20" fill="#FEFEFE" mask="url(#mask-2)"></path>
                            <path d="M71.9529296,43.6742943 C71.9529296,43.8690113 71.9165915,44.0483321 71.8448239,44.2063698 C71.7726021,44.365766 71.6740352,44.5043321 71.5532113,44.6161811 C71.1303275,45.0010868 70.6184155,45.0952755 70.0615352,44.7950491 C69.8684894,44.6931623 69.7072394,44.5401057 69.5805106,44.3390491 C69.5101056,44.2290113 69.4560528,44.1171623 69.4197148,44.005766 C69.3842852,43.896634 69.3661162,43.7788981 69.3661162,43.6557283 L69.3661162,40.720483 L68.7129401,40.720483 L68.7129401,43.7159547 C68.7129401,43.9142943 68.7379225,44.0967849 68.7860704,44.2579925 C68.8346725,44.4187472 68.9059859,44.5758792 69.0013732,44.7289358 C69.1912394,45.0105962 69.43425,45.2252377 69.7249542,45.3665208 C70.0124789,45.5064453 70.3236232,45.5775396 70.6502113,45.5775396 C70.9804331,45.5775396 71.2970282,45.5037283 71.5904577,45.3570113 C71.8875211,45.2089358 72.1300775,44.9902189 72.308588,44.709917 C72.4085176,44.5600302 72.4843732,44.3974642 72.5334296,44.2262943 C72.5815775,44.0573887 72.6056514,43.8717283 72.6056514,43.6742943 L72.6056514,40.720483 L71.9529296,40.720483 L71.9529296,43.6742943 Z" id="Fill-21" fill="#FEFEFE" mask="url(#mask-2)"></path>
                            <path d="M75.9433447,41.2790038 L75.9433447,40.7202113 L75.2906229,40.7202113 L75.2906229,45.5039094 L75.9433447,45.5039094 L75.9433447,42.9200604 C75.9433447,42.7633811 75.961968,42.611683 75.9992144,42.4694943 C76.0373694,42.3245887 76.0900595,42.1842113 76.155468,42.0533434 C76.2758377,41.8165132 76.4379961,41.6353811 76.6364926,41.5153811 C76.8363518,41.3953811 77.0598306,41.3347019 77.2919398,41.3342491 L77.7030137,41.363683 L77.7030137,40.7202113 L77.2646863,40.7202113 C76.711894,40.7202113 76.2694785,40.9081358 75.9433447,41.2790038" id="Fill-22" fill="#FEFEFE" mask="url(#mask-2)"></path>
                            <path d="M88.0206972,39.168317 C87.8158415,38.9509585 87.5555704,38.7775245 87.246243,38.6525434 C86.9396408,38.5293736 86.5907958,38.466883 86.2097007,38.466883 C85.6714437,38.466883 85.2113134,38.5823547 84.8429366,38.8096755 C84.472743,39.0374491 84.1988451,39.3336 84.0285106,39.6899774 C83.8613556,40.0400151 83.775507,40.4276377 83.775507,40.8424302 L83.775507,45.5038642 L84.4477606,45.5038642 L84.4477606,40.7405434 C84.4477606,40.3896 84.5254331,40.0889208 84.6794155,39.8462038 C84.831581,39.6034868 85.0405246,39.4205434 85.2989789,39.3014491 C85.5628838,39.1796377 85.8694859,39.1180528 86.2097007,39.1180528 C86.5739894,39.1180528 86.891493,39.1864302 87.1513099,39.3218264 C87.4070387,39.4549585 87.605081,39.642883 87.7399859,39.8806189 C87.8144789,40.0092226 87.8698944,40.1400906 87.9048697,40.2705057 C87.9398451,40.4009208 87.9575599,40.5449208 87.9575599,40.698883 L87.9575599,41.632166 L84.555412,41.632166 L84.555412,42.264317 L87.9575599,42.264317 L87.9575599,45.5038642 L88.6479824,45.5038642 L88.6479824,40.8605434 C88.6479824,40.528166 88.5943838,40.2143547 88.4885493,39.928166 C88.3818063,39.6406189 88.2241901,39.3852226 88.0206972,39.168317" id="Fill-23" fill="#FEFEFE" mask="url(#mask-2)"></path>
                            <path d="M96.9064806,41.3723321 C96.7415968,41.1173887 96.530382,40.9253887 96.2791954,40.801766 C95.7354877,40.5345962 95.0691391,40.5635774 94.5694912,40.8710491 C94.3900722,40.9815396 94.2474454,41.121917 94.143882,41.2903698 C94.043044,41.1255396 93.9035968,40.9883321 93.7250863,40.881917 C93.2386109,40.5893887 92.6008785,40.5504453 92.0335511,40.8121811 C91.777368,40.9308226 91.5652447,41.1119547 91.402632,41.3524075 C91.3149665,41.4832755 91.247287,41.6218415 91.2023187,41.7649358 C91.1564419,41.9093887 91.1328222,42.0674264 91.1328222,42.2349736 L91.1328222,45.5039547 L91.7678292,45.5039547 L91.7669208,42.3445585 C91.7891778,42.0950491 91.8477729,41.8867472 91.9363468,41.7318792 C92.0399102,41.5684075 92.1670933,41.4456906 92.315625,41.3664453 C92.6208644,41.2029736 93.0010511,41.2120302 93.3108327,41.3714264 C93.4734454,41.4651623 93.6006285,41.5901434 93.6987412,41.7540679 C93.7945827,41.9148226 93.8436391,42.1095396 93.8436391,42.3323321 L93.8436391,45.5039547 L94.4736496,45.5039547 L94.4736496,42.2906717 C94.4736496,42.1915019 94.4881849,42.0927849 94.5158926,41.9976906 C94.544963,41.9035019 94.5835722,41.8174642 94.6339912,41.7391245 C94.7307412,41.580634 94.8556532,41.4619925 95.006456,41.3868226 C95.304882,41.236483 95.6614489,41.2283321 95.988037,41.3813887 C96.1411109,41.4533887 96.2637518,41.5647849 96.3636813,41.7232755 C96.4181884,41.8079547 96.4604313,41.8967094 96.4890475,41.985917 C96.5167553,42.073766 96.5308363,42.1702189 96.5308363,42.2721057 L96.5308363,45.5039547 L97.1658433,45.5039547 L97.1658433,42.2906717 C97.1658433,42.1149736 97.143132,41.9478792 97.0972553,41.7930113 C97.0513785,41.6381434 96.9873327,41.4964075 96.9064806,41.3723321" id="Fill-24" fill="#FEFEFE" mask="url(#mask-2)"></path>
                            <path d="M103.200863,40.9942189 C102.845205,40.7573887 102.474102,40.6369358 102.098912,40.6369358 C101.914043,40.6369358 101.747796,40.6482566 101.604261,40.6713509 C101.460271,40.6939925 101.322187,40.7293132 101.190007,40.7768604 C100.938367,40.8782943 100.694902,41.0349736 100.466426,41.2428226 L100.421004,41.2849358 L100.421004,42.1502943 L100.669011,41.8641057 C100.832078,41.6757283 101.030574,41.5240302 101.258141,41.412634 C101.608803,41.2410113 102.028507,41.185766 102.409602,41.3175396 C102.54905,41.3659925 102.687588,41.436634 102.821585,41.5272 C103.075497,41.7010868 103.276264,41.932483 103.418437,42.2145962 C103.561064,42.4989736 103.632831,42.7928604 103.632831,43.0867472 L103.63374,43.2728604 C103.605124,43.5957283 103.498835,43.8896151 103.318962,44.1468226 C103.135909,44.4076528 102.917881,44.6127849 102.669874,44.7558792 C102.156145,45.0533887 101.628335,45.0289358 101.148219,44.7364075 C100.894307,44.5815396 100.682638,44.3596528 100.520479,44.076634 C100.357867,43.7940679 100.276106,43.468483 100.276106,43.1093887 L100.276106,38.5783698 L99.6229299,38.5783698 L99.6229299,43.1125585 C99.6229299,43.5178415 99.7146835,43.9140679 99.8968278,44.2917283 C100.079881,44.6725585 100.347419,44.9850113 100.693085,45.2209358 C100.880226,45.3450113 101.074634,45.4401057 101.273585,45.5035019 C101.473898,45.5682566 101.689201,45.6004075 101.91268,45.6004075 C102.167046,45.6004075 102.467743,45.5465208 102.807504,45.4392 C103.157712,45.3278038 103.4843,45.097766 103.778183,44.7563321 C103.939888,44.5711245 104.067979,44.3524075 104.159279,44.1051623 C104.249669,43.8588226 104.295546,43.5835019 104.295546,43.2878038 L104.295546,43.1025962 C104.295546,42.6715019 104.195162,42.2621434 103.99712,41.8867472 C103.798169,41.5099925 103.530176,41.2093132 103.200863,40.9942189" id="Fill-25" fill="#FEFEFE" mask="url(#mask-2)"></path>
                            <path d="M107.130094,39.1654189 C107.017446,39.1654189 106.915245,39.2102491 106.834848,39.2953811 C106.755358,39.3796075 106.714932,39.4860226 106.714932,39.6114566 C106.714932,39.727834 106.758538,39.8288151 106.83939,39.9021736 C106.913883,39.9700981 107.00609,40.0113057 107.113288,40.0239849 L107.131911,40.0257962 L107.150534,40.0235321 C107.25546,40.007683 107.349031,39.9719094 107.444872,39.9030792 C107.531629,39.8215698 107.577052,39.7205887 107.577052,39.6114566 C107.577052,39.3320604 107.409897,39.1654189 107.130094,39.1654189" id="Fill-26" fill="#FEFEFE" mask="url(#mask-2)"></path>
                            <polygon id="Fill-27" fill="#FEFEFE" mask="url(#mask-2)" points="106.831077 45.5035472 107.461088 45.5035472 107.461088 40.7203019 106.831077 40.7203019"></polygon>
                            <path d="M110.887219,39.4939925 L110.234043,39.4939925 L110.234043,44.0453887 C110.234043,44.5077283 110.365314,44.8708981 110.624223,45.1235774 C110.882677,45.3758038 111.214261,45.5035019 111.609437,45.5035019 L112.483821,45.5035019 L112.483821,44.8663698 L111.762511,44.8894642 C111.633511,44.8894642 111.514504,44.8736151 111.407761,44.841917 C111.300564,44.8106717 111.208356,44.7703698 111.127958,44.7192 C110.991237,44.6390491 110.910385,44.4592755 110.887219,44.1970868 L110.887219,41.3438038 L112.483821,41.3438038 L112.483821,40.7202566 L110.887219,40.7202566 L110.887219,39.4939925 Z" id="Fill-28" fill="#FEFEFE" mask="url(#mask-2)"></path>
                            <path d="M115.076812,39.1654189 C114.964618,39.1654189 114.862418,39.2102491 114.78202,39.2953811 C114.70253,39.3796075 114.662104,39.4860226 114.662104,39.6114566 C114.662104,39.727834 114.70571,39.8288151 114.786562,39.9021736 C114.861055,39.9700981 114.953263,40.0113057 115.060006,40.0239849 L115.079083,40.0257962 L115.097706,40.0235321 C115.202178,40.007683 115.295749,39.9719094 115.392044,39.9030792 C115.478801,39.8215698 115.524224,39.7205887 115.524224,39.6114566 C115.524224,39.3320604 115.357069,39.1654189 115.076812,39.1654189" id="Fill-29" fill="#FEFEFE" mask="url(#mask-2)"></path>
                            <polygon id="Fill-30" fill="#FEFEFE" mask="url(#mask-2)" points="114.77775 45.5035472 115.408215 45.5035472 115.408215 40.7203019 114.77775 40.7203019"></polygon>
                            <path d="M122.153688,43.1120151 C122.153688,43.3900528 122.086463,43.6798642 121.952921,43.9737509 C121.82165,44.2631094 121.618157,44.5080906 121.349255,44.7032604 C121.083988,44.8943547 120.761942,44.9912604 120.391748,44.9912604 C120.029731,44.9912604 119.711773,44.8957132 119.445143,44.706883 C119.173516,44.514883 118.966389,44.2726189 118.829213,43.986883 C118.756537,43.8369962 118.703847,43.6902792 118.672051,43.5512604 C118.641164,43.4131472 118.624812,43.2650717 118.624812,43.1120151 C118.624812,42.7909585 118.701121,42.4821283 118.852379,42.1954868 C119.002727,41.9092981 119.21485,41.6769962 119.481935,41.5044679 C119.747202,41.3332981 120.05335,41.2463547 120.391748,41.2463547 C120.558449,41.2463547 120.719699,41.2708075 120.87141,41.3188075 C121.023576,41.3668075 121.165294,41.4342792 121.292931,41.5198642 C121.553657,41.6914868 121.764871,41.9251472 121.919762,42.2145057 C122.075107,42.5047698 122.153688,42.8063547 122.153688,43.1120151 M122.151417,41.3971472 C121.942928,41.1648453 121.68629,40.9782792 121.38741,40.8419774 C121.088984,40.7061283 120.753766,40.6368453 120.391748,40.6368453 C119.993393,40.6368453 119.635009,40.7160906 119.327044,40.872317 C119.021805,41.0271849 118.761988,41.2345811 118.555315,41.488166 C118.350914,41.7394868 118.197386,42.0111849 118.100181,42.2951094 C118.002523,42.5781283 117.953467,42.8529962 117.953467,43.1120151 C117.953467,43.3094491 117.979812,43.5086943 118.032048,43.704317 C118.083829,43.8967698 118.155597,44.0901283 118.246896,44.2825811 C118.443121,44.667034 118.728375,44.9858264 119.094935,45.2294491 C119.464674,45.4757887 119.901185,45.6007698 120.391748,45.6007698 C120.64884,45.6007698 120.888671,45.5672604 121.103519,45.5020528 C121.319731,45.4363925 121.523678,45.3381283 121.712181,45.2086189 C122.081012,44.9486943 122.357181,44.6226566 122.532967,44.2436377 C122.630171,44.0457509 122.700576,43.8542038 122.743273,43.6744302 C122.785516,43.4937509 122.806864,43.3044679 122.806864,43.1120151 C122.806864,42.7995623 122.749632,42.4902792 122.635621,42.1932226 C122.521157,41.8957132 122.358544,41.6280906 122.151417,41.3971472" id="Fill-31" fill="#FEFEFE" mask="url(#mask-2)"></path>
                            <path d="M128.894347,42.0407547 C128.846199,41.8650566 128.774432,41.6988679 128.68177,41.546717 C128.501442,41.250566 128.256161,41.0218868 127.952284,40.8679245 C127.652041,40.7148679 127.315914,40.6369811 126.955259,40.6369811 C126.736777,40.6369811 126.530558,40.6691321 126.341601,40.7325283 C126.152189,40.7959245 125.982308,40.8864906 125.837865,41.0006038 C125.55897,41.2188679 125.359565,41.477434 125.243738,41.7695094 C125.13109,42.0547925 125.073858,42.3237736 125.073858,42.5687547 L125.073858,45.5035472 L125.727034,45.5035472 L125.727034,42.5873208 C125.727034,42.3532075 125.786537,42.1299623 125.903727,41.922566 C126.021372,41.7142642 126.178534,41.5471698 126.371125,41.4262642 C126.563717,41.3049057 126.76721,41.2464906 127.011129,41.2464906 C127.305921,41.2464906 127.554382,41.3216604 127.749245,41.4701887 C127.949104,41.6218868 128.093548,41.8070943 128.179851,42.021283 C128.268425,42.242717 128.313847,42.4578113 128.313847,42.6606792 L128.313847,45.5035472 L128.966569,45.5035472 L128.966569,42.605434 C128.966569,42.405283 128.942041,42.2150943 128.894347,42.0407547" id="Fill-32" fill="#FEFEFE" mask="url(#mask-2)"></path>
                        </g>
                    </g>
                </g>
            </g>
        </g>
    </g>
</svg>